<?xml version="1.0" standalone="no"?>
<!DOCTYPE svg PUBLIC "-//W3C//DTD SVG 20010904//EN"
 "http://www.w3.org/TR/2001/REC-SVG-20010904/DTD/svg10.dtd">
<svg version="1.0" xmlns="http://www.w3.org/2000/svg"
 width="1448.000000pt" height="1448.000000pt" viewBox="0 0 1448.000000 1448.000000"
 preserveAspectRatio="xMidYMid meet">

<g transform="translate(0.000000,1448.000000) scale(0.100000,-0.100000)"
fill="#fbce3f" stroke="none">
<path d="M4466 13927 c-128 -52 -116 49 -116 -962 l0 -871 23 -44 c14 -30 36
-53 62 -67 39 -22 46 -23 403 -23 l362 0 0 -169 0 -169 -37 -6 c-21 -3 -76
-10 -123 -16 -344 -44 -966 -162 -1430 -271 -618 -147 -1419 -389 -1830 -553
-19 -8 -113 -45 -207 -81 -182 -71 -216 -93 -253 -166 -11 -20 -22 -58 -25
-85 -7 -58 -12 -43 269 -794 109 -289 269 -718 357 -955 88 -236 167 -441 175
-453 43 -66 128 -112 206 -112 24 0 100 24 196 61 541 211 1011 363 1547 498
66 17 123 31 128 31 4 0 7 -181 7 -403 l0 -402 -106 -105 c-440 -437 -750
-995 -879 -1587 -50 -227 -75 -447 -75 -653 0 -100 3 -121 24 -165 28 -59 66
-97 121 -122 35 -16 77 -18 353 -21 308 -3 312 -4 301 -23 -36 -69 -39 -105
-39 -591 l0 -477 -42 -19 c-104 -46 -158 -129 -158 -242 0 -90 24 -136 120
-235 l80 -82 -25 -57 c-47 -107 -55 -174 -55 -476 0 -342 14 -419 100 -547 17
-24 30 -46 30 -49 0 -2 -141 -4 -313 -4 l-313 0 -51 -25 c-57 -29 -96 -74
-118 -136 -18 -49 -21 -381 -5 -494 36 -250 158 -492 340 -675 172 -173 385
-286 638 -337 82 -17 263 -18 3233 -18 l3147 0 123 62 c251 125 649 371 702
434 44 50 137 232 170 329 49 143 59 229 55 480 l-3 228 -30 43 c-17 24 -53
57 -80 74 l-48 30 -309 3 c-169 2 -308 5 -308 8 0 3 9 19 20 34 36 51 80 155
95 226 10 49 15 137 15 304 l0 235 48 19 c147 59 250 203 272 376 15 125 12
485 -5 630 -40 341 -175 620 -417 862 l-106 107 336 3 c317 3 340 4 382 24 50
23 105 80 126 130 19 45 18 264 -1 452 -58 557 -270 1104 -603 1557 -37 50
-69 92 -72 95 -3 3 -37 43 -76 90 -40 47 -122 135 -183 195 l-111 110 0 403
c0 304 3 402 12 402 20 0 395 -99 593 -156 360 -105 754 -240 1068 -365 122
-49 157 -59 207 -59 114 0 192 57 234 169 14 36 136 363 271 726 136 363 303
811 372 995 69 184 128 351 130 372 10 67 -15 136 -66 188 -40 41 -65 55 -201
108 -1126 440 -2387 765 -3565 917 -116 15 -216 29 -222 31 -10 2 -13 43 -13
158 l0 155 373 3 c418 3 413 3 456 78 21 38 21 43 21 924 0 844 -1 887 -18
904 -10 10 -60 35 -110 55 l-92 37 -2693 0 -2692 -1 -79 -32z m1665 -727 c9
-11 18 -18 20 -16 2 2 5 -73 6 -167 2 -164 3 -171 25 -193 38 -37 107 -36 145
2 l26 26 -7 161 c-7 156 -6 163 14 185 14 15 32 22 59 22 26 0 44 -7 59 -22
19 -21 21 -39 28 -208 l6 -185 -33 -50 c-50 -73 -100 -95 -214 -95 -134 1
-137 2 -131 7 3 3 -14 15 -37 27 -25 12 -54 39 -72 66 -29 43 -29 48 -29 165
1 273 0 263 37 285 37 23 73 19 98 -10z m909 15 c19 -4 52 -18 72 -32 80 -54
90 -210 17 -274 -21 -18 -18 -38 13 -71 24 -25 48 -76 48 -102 0 -36 -36 -66
-79 -66 -20 0 -41 4 -46 8 -15 11 -90 114 -98 135 -8 21 -52 39 -86 35 -22 -3
-25 -8 -28 -58 -2 -30 -6 -65 -8 -77 -11 -48 -90 -61 -131 -22 l-26 24 7 235
c7 250 10 265 59 272 39 6 251 1 286 -7z m756 -15 c24 -15 45 -58 33 -66 -5
-3 -7 -9 -4 -13 2 -5 -7 -19 -20 -31 -24 -23 -29 -23 -98 -13 -88 12 -123 4
-165 -40 -43 -44 -52 -109 -22 -167 18 -35 24 -39 45 -34 15 4 25 2 25 -5 0
-6 -8 -8 -17 -5 -15 5 -15 3 1 -10 21 -17 120 -22 143 -8 24 15 18 34 -12 38
-55 6 -75 24 -75 65 0 35 19 68 41 70 5 0 27 1 49 1 141 0 146 -1 158 -24 6
-13 14 -70 16 -127 7 -146 -15 -182 -101 -166 -26 5 -33 3 -27 -6 4 -8 3 -10
-5 -5 -6 4 -8 12 -5 18 5 8 0 9 -17 3 -88 -29 -223 -11 -296 39 -70 48 -108
125 -107 220 1 49 7 85 21 116 38 83 135 155 230 168 59 9 184 -2 209 -18z
m737 -12 c19 -19 22 -29 16 -58 -12 -56 -28 -61 -172 -58 l-127 3 0 -32 c0
-30 3 -33 33 -34 169 -6 214 -14 222 -40 10 -29 -4 -78 -25 -89 -10 -6 -68
-10 -129 -10 l-111 0 0 -35 0 -35 53 -1 c214 -5 217 -6 237 -24 24 -22 26 -62
4 -93 -16 -23 -18 -23 -215 -21 -185 1 -201 3 -225 22 l-27 21 7 105 c22 343
24 362 42 382 16 17 32 19 205 19 181 0 189 -1 212 -22z m577 -2 c19 0 29 -1
22 -4 -7 -2 1 -13 20 -26 18 -12 40 -35 48 -51 18 -36 22 -163 6 -182 -6 -8
-16 -20 -23 -27 -7 -8 -9 -17 -5 -21 4 -5 2 -5 -4 -2 -6 4 -19 -2 -28 -12 -15
-16 -15 -19 -1 -31 8 -7 15 -18 15 -24 0 -7 8 -21 18 -32 43 -46 33 -111 -20
-137 -47 -23 -95 -3 -122 51 -9 18 -21 30 -26 27 -5 -3 -12 0 -16 6 -4 8 -3 9
4 5 18 -11 14 4 -11 49 -21 37 -27 40 -68 43 -45 3 -47 2 -53 -29 -3 -17 -6
-47 -6 -66 0 -73 -88 -110 -145 -60 l-26 22 25 230 c13 127 28 238 32 248 12
32 44 37 189 30 77 -4 156 -7 175 -7z m-3432 -21 c40 -19 56 -33 67 -59 20
-48 19 -105 -4 -141 l-18 -30 31 -15 c16 -8 41 -31 54 -50 20 -30 23 -44 20
-97 -4 -69 -10 -77 -83 -112 -59 -29 -268 -40 -313 -17 -17 9 -36 25 -41 35
-6 10 -13 119 -17 243 l-7 224 28 22 c24 19 40 22 129 22 86 0 109 -4 154 -25z
m2883 -78 c-10 -9 -11 -8 -5 6 3 10 9 15 12 12 3 -3 0 -11 -7 -18z m429 -1268
l0 -141 -37 6 c-125 19 -610 52 -962 67 -322 13 -1276 7 -1541 -10 -352 -23
-802 -61 -902 -77 l-38 -6 0 151 0 151 1740 0 1740 0 0 -141z m-870 -379
c1392 -74 2664 -300 3930 -696 354 -111 957 -328 983 -354 5 -4 -56 -183 -136
-396 -80 -214 -235 -630 -345 -924 -110 -295 -207 -552 -215 -572 l-15 -37
-114 45 c-984 390 -2196 683 -3343 808 -566 62 -924 81 -1535 81 -842 -1
-1502 -55 -2315 -191 -895 -150 -1811 -402 -2604 -718 -36 -14 -68 -26 -71
-26 -3 0 -12 17 -19 38 -8 20 -109 294 -226 607 -324 865 -462 1238 -469 1261
-6 19 0 24 36 37 24 9 120 44 213 80 1522 578 3266 915 5030 971 196 6 1015
-3 1215 -14z m-940 -2524 l0 -174 -552 -5 c-592 -5 -675 -11 -932 -63 -71 -14
-173 -38 -227 -53 l-99 -28 -79 148 c-105 195 -102 185 -44 193 691 98 1263
148 1771 154 l162 2 0 -174z m755 164 c427 -21 836 -57 1195 -106 295 -40 330
-46 330 -57 0 -21 -164 -317 -175 -317 -7 0 -63 13 -126 30 -139 36 -284 64
-444 86 -94 13 -239 17 -675 21 l-555 5 2 167 c1 91 2 169 3 174 0 10 206 9
445 -3z m-2962 -395 c53 -102 97 -189 97 -193 0 -4 -60 -37 -132 -72 -137 -67
-331 -179 -402 -231 l-41 -30 -3 312 c-1 172 1 316 5 320 7 6 331 75 368 78 6
1 54 -82 108 -184z m5010 148 l187 -37 0 -317 0 -318 -132 85 c-73 47 -203
119 -288 161 -85 42 -157 77 -159 79 -4 3 55 120 134 264 25 47 49 93 52 103
3 9 8 17 12 17 3 0 90 -17 194 -37z m-1278 -426 c429 -65 765 -182 1116 -390
239 -140 503 -361 689 -577 36 -41 67 -77 70 -80 19 -18 116 -149 167 -225
283 -422 456 -938 480 -1427 l6 -138 -3903 0 -3903 0 6 125 c24 474 174 949
431 1362 229 370 574 712 953 946 397 244 819 378 1328 421 22 2 582 2 1245 1
1069 -1 1217 -3 1315 -18z m1374 -3139 c42 -11 109 -33 149 -50 l72 -30 0
-494 0 -494 -195 0 -195 0 0 551 0 551 46 -7 c25 -3 81 -16 123 -27z m-1850
-14 c-151 -125 -314 -332 -394 -499 -72 -153 -135 -388 -135 -505 l0 -50 -196
0 -197 0 6 68 c16 167 92 372 194 523 156 229 383 394 653 473 114 33 121 32
69 -10z m-3169 -1 c0 -5 -9 -35 -20 -67 -19 -55 -20 -87 -20 -455 0 -375 -1
-398 -20 -428 -51 -85 -160 -80 -206 9 -11 22 -14 102 -14 413 0 364 -6 455
-30 490 -4 6 -10 18 -13 28 -6 16 6 17 158 17 91 0 165 -3 165 -7z m1145 -10
c-44 -105 -45 -120 -45 -529 l0 -393 -30 -35 c-55 -62 -134 -57 -180 11 l-25
37 -5 415 c-5 361 -8 422 -23 460 -9 24 -17 45 -17 47 0 2 75 4 166 4 154 0
166 -1 159 -17z m1145 15 c0 -2 -9 -27 -20 -56 -14 -37 -20 -76 -20 -135 0
-76 -3 -87 -32 -133 -82 -129 -193 -382 -200 -457 -1 -12 -5 133 -8 323 -5
351 -5 349 -45 443 -7 16 5 17 159 17 91 0 166 -1 166 -2z m1510 -2 c0 -3 -4
-8 -10 -11 -5 -3 -10 -1 -10 4 0 6 5 11 10 11 6 0 10 -2 10 -4z m-4455 -129
l33 -33 5 -404 c5 -368 9 -437 32 -492 7 -17 -3 -18 -129 -18 l-136 0 0 445
c0 480 0 483 52 519 12 9 42 16 66 16 36 0 50 -6 77 -33z m1137 10 c15 -12 32
-35 37 -50 7 -18 11 -163 11 -406 0 -303 3 -388 15 -434 8 -32 15 -60 15 -62
0 -3 -67 -5 -150 -5 -82 0 -150 2 -150 4 0 3 6 17 12 33 9 20 14 149 18 451
l5 424 37 34 c47 42 107 47 150 11z m1154 -11 c19 -19 34 -44 34 -57 0 -13 1
-197 3 -409 2 -323 5 -393 19 -432 l16 -48 -150 0 -150 0 7 28 c20 81 25 170
25 509 l0 372 34 35 c29 31 39 36 81 36 40 0 52 -5 81 -34z m2296 -178 c0 -24
0 -202 -1 -395 l-1 -353 -190 0 -190 0 0 24 c0 13 7 63 15 112 34 193 118 379
238 529 55 68 120 136 125 130 3 -2 5 -24 4 -47z m-1302 -1156 c0 -146 0 -149
-29 -194 -76 -120 -251 -117 -326 6 -29 47 -30 56 -34 178 -1 71 0 135 3 143
4 13 37 15 196 15 l190 0 0 -148z m1301 -2 c-2 -168 -11 -196 -80 -245 -37
-26 -51 -30 -110 -30 -77 0 -120 22 -162 83 -22 33 -24 46 -27 189 l-3 153
191 -2 192 -3 -1 -145z m1304 -2 l0 -146 -30 -44 c-93 -131 -278 -112 -340 34
-11 27 -15 73 -15 166 0 71 3 132 7 136 4 3 90 5 192 4 l186 -3 0 -147z
m-3255 45 l0 -76 -72 -76 c-40 -42 -129 -135 -198 -206 -69 -72 -179 -187
-245 -256 -66 -68 -181 -187 -255 -264 -167 -173 -498 -520 -610 -637 -45 -49
-88 -88 -95 -88 -6 0 -45 35 -86 78 -41 42 -171 178 -290 302 -119 124 -232
243 -251 264 l-35 39 -68 -84 c-37 -46 -79 -105 -94 -131 l-26 -48 -60 0 -60
0 -26 48 c-38 68 -147 200 -221 266 -34 31 -102 84 -150 117 l-88 60 0 49 c0
48 2 51 43 76 62 39 178 128 206 158 l25 26 -65 66 c-35 37 -73 76 -84 88 -11
12 -69 74 -130 137 -60 63 -121 127 -134 142 l-24 27 1546 0 1547 0 0 -77z
m140 -463 c0 -3 -28 -35 -62 -71 -35 -35 -162 -168 -283 -294 -503 -526 -745
-775 -754 -775 -4 0 -22 16 -41 35 l-34 35 110 112 c60 62 174 181 254 264 80
83 197 204 260 270 63 66 198 206 300 312 l184 193 33 -38 c18 -21 32 -40 33
-43z m1418 -75 l42 -20 -3 -1105 -2 -1105 -682 -3 -683 -2 0 1007 0 1008 86
87 c77 78 89 86 114 81 73 -14 232 36 310 97 21 16 40 30 43 30 2 0 34 -20 71
-45 88 -58 158 -79 266 -79 102 1 172 25 257 88 l58 43 41 -31 c22 -17 59 -40
82 -51z m1219 54 c20 -17 51 -38 69 -47 l34 -16 0 -1113 0 -1113 -510 0 -510
0 0 1098 0 1097 58 18 c32 10 82 36 110 58 29 21 55 39 58 39 4 0 29 -16 56
-37 57 -41 149 -77 224 -88 100 -13 256 35 334 103 19 17 37 31 39 32 2 0 19
-14 38 -31z m-2816 -1481 c-1 -155 -1 -397 -1 -536 l0 -253 -1402 4 c-1538 3
-1444 -1 -1603 63 -261 104 -456 320 -536 594 -17 59 -23 111 -26 243 l-5 167
918 0 918 0 77 -75 c91 -89 141 -115 224 -115 78 0 144 31 209 99 l50 51 60
-59 c78 -74 132 -96 221 -89 81 7 130 35 210 119 l60 64 310 5 c171 3 311 4
313 3 2 0 3 -129 3 -285z m4229 135 c0 -175 -19 -271 -79 -399 -93 -197 -234
-339 -432 -433 -46 -22 -111 -48 -144 -56 -65 -17 -224 -34 -322 -35 l-63 0 0
535 0 535 520 0 520 0 0 -147z"/>
<path d="M6856 13052 c3 -81 -3 -75 75 -70 74 4 89 13 89 55 0 39 -26 53 -98
53 l-67 0 1 -38z"/>
<path d="M8885 13009 c-4 -27 -5 -52 -4 -54 4 -3 89 -8 122 -6 21 1 57 36 57
56 0 34 -35 52 -103 54 l-65 1 -7 -51z"/>
<path d="M5530 13020 c0 -39 2 -41 26 -38 35 4 53 31 38 56 -6 9 -23 18 -38
20 -24 3 -26 1 -26 -38z"/>
<path d="M5540 12836 c0 -7 3 -28 6 -45 5 -26 11 -31 35 -31 47 0 79 17 79 43
0 35 -19 47 -72 47 -34 0 -48 -4 -48 -14z"/>
<path d="M7563 10773 c4 -219 7 -561 7 -760 l0 -363 115 0 115 0 0 311 0 312
74 -5 c76 -5 105 -18 134 -60 14 -19 18 -62 22 -283 3 -143 9 -266 13 -272 6
-9 41 -13 118 -13 110 0 110 0 102 23 -4 12 -6 135 -5 272 3 232 2 255 -17
310 -15 45 -33 71 -68 104 -31 29 -43 46 -35 49 31 10 83 67 106 115 48 99 60
369 21 479 -19 53 -70 110 -123 137 -65 33 -137 41 -364 41 l-221 0 6 -397z
m434 161 c45 -34 55 -83 47 -227 -10 -192 -29 -217 -166 -217 l-78 0 0 113 c0
63 3 169 7 237 l6 122 79 -4 c57 -4 86 -10 105 -24z"/>
<path d="M6375 11136 c-112 -30 -174 -74 -217 -152 -48 -90 -52 -143 -29 -400
44 -481 61 -651 72 -709 23 -122 88 -213 188 -258 61 -28 211 -30 288 -4 64
23 137 85 167 146 46 91 49 133 32 504 -21 438 -33 602 -47 652 -27 96 -102
180 -188 210 -62 22 -203 28 -266 11z m190 -239 c42 -42 35 26 91 -868 10
-162 -19 -219 -113 -219 -92 0 -117 46 -133 245 -63 802 -61 762 -44 805 20
49 53 69 118 70 41 0 53 -5 81 -33z"/>
<path d="M9036 11108 c-2 -7 -14 -143 -26 -303 -12 -159 -39 -495 -60 -745
-20 -250 -36 -456 -35 -458 1 -1 74 -9 161 -17 87 -9 219 -22 293 -31 73 -8
135 -13 136 -12 3 3 25 186 25 206 0 4 -83 17 -185 27 -135 14 -185 23 -185
32 0 7 27 296 60 641 33 346 60 633 60 639 0 6 -35 14 -82 17 -46 4 -100 9
-120 12 -27 4 -39 2 -42 -8z"/>
<path d="M5278 11007 l-78 -9 0 -72 c0 -63 28 -670 46 -996 4 -69 4 -123 1
-120 -3 3 -30 104 -61 225 -30 121 -64 252 -74 290 -10 39 -52 194 -92 345
-40 151 -74 277 -77 279 -5 7 -216 -29 -226 -38 -4 -4 2 -119 13 -257 38 -486
70 -859 75 -889 15 -81 -20 17 -94 270 -79 265 -250 828 -254 831 -7 7 -221
-44 -224 -53 -2 -6 61 -213 140 -459 80 -247 182 -568 227 -714 46 -146 86
-268 89 -272 3 -3 40 0 81 8 41 7 108 19 149 26 l74 12 -7 98 c-3 54 -15 231
-26 394 -12 163 -19 298 -17 300 4 4 40 -125 153 -541 30 -110 56 -205 58
-211 4 -9 65 -2 265 32 l34 5 -7 192 c-8 229 -36 1222 -36 1290 0 54 7 52
-132 34z"/>
<path d="M10360 10954 c0 -3 -25 -162 -56 -353 -148 -924 -183 -1145 -181
-1147 1 -1 100 -19 220 -39 236 -39 282 -39 364 4 103 53 147 143 203 416 23
110 62 299 88 420 58 275 63 380 20 460 -14 28 -41 64 -60 82 -68 65 -121 80
-565 158 -18 3 -33 3 -33 -1z m365 -283 c63 -20 89 -62 80 -131 -5 -40 -50
-277 -135 -715 -41 -211 -64 -236 -195 -214 -41 7 -79 15 -84 18 -10 7 -4 47
73 476 30 171 64 366 76 435 29 175 22 163 83 155 29 -4 75 -15 102 -24z"/>
<path d="M8284 2621 c-30 -13 -87 -82 -116 -143 -47 -97 -62 -171 -62 -313 0
-95 5 -148 18 -195 39 -140 117 -254 183 -266 128 -24 203 105 126 217 -47 67
-68 148 -66 254 1 103 20 168 67 234 25 35 31 53 30 93 0 43 -5 54 -36 85 -28
27 -45 36 -79 39 -24 2 -53 0 -65 -5z"/>
<path d="M9162 2610 c-36 -22 -62 -72 -62 -118 0 -16 14 -49 30 -74 49 -74 71
-151 72 -253 2 -104 -15 -164 -67 -245 -40 -61 -44 -99 -17 -149 42 -78 144
-92 208 -30 42 41 97 149 121 239 24 88 23 289 -1 380 -24 88 -63 165 -111
218 -36 39 -46 45 -90 49 -39 3 -58 -1 -83 -17z"/>
</g>
</svg>
